<svg width="24" height="24" viewBox="0 0 24 24" fill="none" xmlns="http://www.w3.org/2000/svg">
<path d="M5.8 20.2C5.305 20.2 4.88125 20.0238 4.52875 19.6713C4.17625 19.3188 4 18.895 4 18.4V14.8C4 14.305 4.17625 13.8813 4.52875 13.5288C4.88125 13.1763 5.305 13 5.8 13H9.4C9.895 13 10.3188 13.1763 10.6713 13.5288C11.0238 13.8813 11.2 14.305 11.2 14.8V18.4C11.2 18.895 11.0238 19.3188 10.6713 19.6713C10.3188 20.0238 9.895 20.2 9.4 20.2H5.8ZM5.8 18.4H9.4V14.8H5.8V18.4ZM13.8 17.6C13.545 17.6 13.3312 17.5138 13.1587 17.3413C12.9862 17.1688 12.9 16.955 12.9 16.7C12.9 16.445 12.9862 16.2313 13.1587 16.0588C13.3312 15.8863 13.545 15.8 13.8 15.8H20.1C20.355 15.8 20.5687 15.8863 20.7412 16.0588C20.9137 16.2313 21 16.445 21 16.7C21 16.955 20.9137 17.1688 20.7412 17.3413C20.5687 17.5138 20.355 17.6 20.1 17.6H13.8ZM5.8 11.2C5.305 11.2 4.88125 11.0238 4.52875 10.6713C4.17625 10.3188 4 9.895 4 9.4V5.8C4 5.305 4.17625 4.88125 4.52875 4.52875C4.88125 4.17625 5.305 4 5.8 4H9.4C9.895 4 10.3188 4.17625 10.6713 4.52875C11.0238 4.88125 11.2 5.305 11.2 5.8V9.4C11.2 9.895 11.0238 10.3188 10.6713 10.6713C10.3188 11.0238 9.895 11.2 9.4 11.2H5.8ZM5.8 9.4H9.4V5.8H5.8V9.4ZM13.8 8.6C13.545 8.6 13.3312 8.51375 13.1587 8.34125C12.9862 8.16875 12.9 7.955 12.9 7.7C12.9 7.445 12.9862 7.23125 13.1587 7.05875C13.3312 6.88625 13.545 6.8 13.8 6.8H20.1C20.355 6.8 20.5687 6.88625 20.7412 7.05875C20.9137 7.23125 21 7.445 21 7.7C21 7.955 20.9137 8.16875 20.7412 8.34125C20.5687 8.51375 20.355 8.6 20.1 8.6H13.8Z" fill="#C3C3C3"/>
</svg>
