<svg width="24" height="24" viewBox="0 0 24 24" fill="none" xmlns="http://www.w3.org/2000/svg">
<path d="M18.6625 6.36316L10.026 14.9997C9.68917 15.3365 9.14507 15.3365 8.80824 14.9997L6.3641 12.5556C6.02727 12.2187 6.02727 11.6746 6.3641 11.3378C6.70092 11.001 7.24502 11.001 7.58185 11.3378L9.4128 13.1688L17.4362 5.1454C17.773 4.80858 18.3171 4.80858 18.6539 5.1454C18.9994 5.48223 18.9994 6.02633 18.6625 6.36316ZM10.6392 18.5493C6.57137 18.5493 3.31539 15.017 3.77313 10.8628C4.10996 7.82273 6.46773 5.32677 9.48189 4.82585C11.0451 4.56675 12.5306 4.84312 13.7915 5.4995C14.1284 5.67223 14.5343 5.61178 14.802 5.34404C15.2166 4.92949 15.1129 4.22993 14.5947 3.96219C13.3252 3.31445 11.8915 2.96035 10.3628 3.00354C5.92363 3.14172 2.23582 6.7518 2.01127 11.1824C1.76081 16.1656 5.71635 20.2766 10.6392 20.2766C11.6756 20.2766 12.6601 20.0953 13.5843 19.7584C14.1715 19.5425 14.3356 18.7825 13.8865 18.3334C13.6533 18.1002 13.2992 18.0139 12.9883 18.1348C12.2542 18.4025 11.4597 18.5493 10.6392 18.5493ZM16.6848 14.2311H14.9575C14.4825 14.2311 14.0938 14.6197 14.0938 15.0947C14.0938 15.5697 14.4825 15.9584 14.9575 15.9584H16.6848V17.6857C16.6848 18.1607 17.0734 18.5493 17.5484 18.5493C18.0234 18.5493 18.4121 18.1607 18.4121 17.6857V15.9584H20.1394C20.6144 15.9584 21.0031 15.5697 21.0031 15.0947C21.0031 14.6197 20.6144 14.2311 20.1394 14.2311H18.4121V12.5037C18.4121 12.0287 18.0234 11.6401 17.5484 11.6401C17.0734 11.6401 16.6848 12.0287 16.6848 12.5037V14.2311Z" fill="#C3C3C3"/>
</svg>
